<svg width="36" height="36" viewBox="0 0 36 36" fill="none" xmlns="http://www.w3.org/2000/svg">
<rect x="0.5" y="0.5" width="35" height="35" rx="17.5" stroke="#ADB5BD"/>
<path d="M15.3334 25.9999C15.7015 25.9999 16 25.7014 16 25.3332C16 24.965 15.7015 24.6666 15.3334 24.6666C14.9652 24.6666 14.6667 24.965 14.6667 25.3332C14.6667 25.7014 14.9652 25.9999 15.3334 25.9999Z" stroke="#ADB5BD" stroke-width="1.5" stroke-linecap="round" stroke-linejoin="round"/>
<path d="M22.6669 25.9999C23.0351 25.9999 23.3336 25.7014 23.3336 25.3332C23.3336 24.965 23.0351 24.6666 22.6669 24.6666C22.2987 24.6666 22.0002 24.965 22.0002 25.3332C22.0002 25.7014 22.2987 25.9999 22.6669 25.9999Z" stroke="#ADB5BD" stroke-width="1.5" stroke-linecap="round" stroke-linejoin="round"/>
<path d="M10 12H12.6667L14.4533 20.9267C14.5143 21.2336 14.6813 21.5093 14.925 21.7055C15.1688 21.9018 15.4738 22.006 15.7867 22H22.2667C22.5795 22.006 22.8845 21.9018 23.1283 21.7055C23.3721 21.5093 23.539 21.2336 23.6 20.9267L24.6667 15.3333H13.3333" stroke="#ADB5BD" stroke-width="1.5" stroke-linecap="round" stroke-linejoin="round"/>
</svg>
