<svg width="36" height="36" viewBox="0 0 36 36" fill="none" xmlns="http://www.w3.org/2000/svg">
<rect x="0.5" y="0.5" width="35" height="35" rx="17.5" stroke="#ADB5BD"/>
<path d="M23.5556 23.9999V22.5555C23.5556 21.7893 23.2512 21.0545 22.7094 20.5127C22.1676 19.9709 21.4328 19.6666 20.6667 19.6666H14.8889C14.1227 19.6666 13.3879 19.9709 12.8461 20.5127C12.3044 21.0545 12 21.7893 12 22.5555V23.9999" stroke="#ADB5BD" stroke-width="1.5" stroke-linecap="round" stroke-linejoin="round"/>
<path d="M17.778 16.7778C19.3735 16.7778 20.6669 15.4844 20.6669 13.8889C20.6669 12.2934 19.3735 11 17.778 11C16.1825 11 14.8891 12.2934 14.8891 13.8889C14.8891 15.4844 16.1825 16.7778 17.778 16.7778Z" stroke="#ADB5BD" stroke-width="1.5" stroke-linecap="round" stroke-linejoin="round"/>
</svg>
