<svg width="62" height="83" viewBox="0 0 62 83" fill="none" xmlns="http://www.w3.org/2000/svg">
<path fill-rule="evenodd" clip-rule="evenodd" d="M1.00006 1H13.0001V13H1.00006V1ZM6.10352e-05 0H1.00006H13.0001H14.0001V1V13V14H13.0001H1.00006H6.10352e-05V13V1V0ZM1.00006 24H13.0001V36H1.00006V24ZM6.10352e-05 23H1.00006H13.0001H14.0001V24V36V37H13.0001H1.00006H6.10352e-05V36V24V23ZM13.0001 47H1.00006V59H13.0001V47ZM1.00006 46H6.10352e-05V47V59V60H1.00006H13.0001H14.0001V59V47V46H13.0001H1.00006ZM1.00006 70H13.0001V82H1.00006V70ZM6.10352e-05 69H1.00006H13.0001H14.0001V70V82V83H13.0001H1.00006H6.10352e-05V82V70V69ZM37.0001 1H25.0001V13H37.0001V1ZM25.0001 0H24.0001V1V13V14H25.0001H37.0001H38.0001V13V1V0H37.0001H25.0001ZM25.0001 24H37.0001V36H25.0001V24ZM24.0001 23H25.0001H37.0001H38.0001V24V36V37H37.0001H25.0001H24.0001V36V24V23ZM37.0001 47H25.0001V59H37.0001V47ZM25.0001 46H24.0001V47V59V60H25.0001H37.0001H38.0001V59V47V46H37.0001H25.0001ZM25.0001 70H37.0001V82H25.0001V70ZM24.0001 69H25.0001H37.0001H38.0001V70V82V83H37.0001H25.0001H24.0001V82V70V69ZM61.0001 1H49.0001V13H61.0001V1ZM49.0001 0H48.0001V1V13V14H49.0001H61.0001H62.0001V13V1V0H61.0001H49.0001ZM49.0001 24H61.0001V36H49.0001V24ZM48.0001 23H49.0001H61.0001H62.0001V24V36V37H61.0001H49.0001H48.0001V36V24V23ZM61.0001 47H49.0001V59H61.0001V47ZM49.0001 46H48.0001V47V59V60H49.0001H61.0001H62.0001V59V47V46H61.0001H49.0001ZM49.0001 70H61.0001V82H49.0001V70ZM48.0001 69H49.0001H61.0001H62.0001V70V82V83H61.0001H49.0001H48.0001V82V70V69Z" fill="url(#paint0_linear)"/>
<defs>
<linearGradient id="paint0_linear" x1="37.5001" y1="33.5" x2="6.1492e-05" y2="63" gradientUnits="userSpaceOnUse">
<stop stop-color="white"/>
<stop offset="1" stop-color="white" stop-opacity="0"/>
</linearGradient>
</defs>
</svg>
